<svg width="96" height="96" fill="none" xmlns="http://www.w3.org/2000/svg"><path d="M78.508 42.035A3 3 0 0 1 81 44.99v6.018a3 3 0 0 1-2.492 2.956l-5.195.894a26.034 26.034 0 0 1-2.561 6.194l3.039 4.302a3 3 0 0 1-.328 3.852l-4.256 4.256a2.999 2.999 0 0 1-3.852.328l-4.302-3.037a26.096 26.096 0 0 1-6.194 2.56l-.894 5.196A3 3 0 0 1 51.01 81h-6.018a3 3 0 0 1-2.956-2.492l-.894-5.195a26.034 26.034 0 0 1-6.194-2.561l-4.302 3.038a3 3 0 0 1-3.852-.329l-4.255-4.255a3 3 0 0 1-.329-3.853l3.039-4.301a26.034 26.034 0 0 1-2.56-6.194l-5.197-.894A2.996 2.996 0 0 1 15 51.009v-6.018a3 3 0 0 1 2.491-2.956l5.197-.894a26.034 26.034 0 0 1 2.56-6.194l-3.039-4.302a3 3 0 0 1 .329-3.852l4.255-4.255a3 3 0 0 1 3.852-.329l4.302 3.039a26.096 26.096 0 0 1 6.194-2.56l.894-5.197A3 3 0 0 1 44.99 15h6.018a3 3 0 0 1 2.956 2.491l.894 5.197a26.034 26.034 0 0 1 6.194 2.56l4.302-3.039a3 3 0 0 1 3.852.329l4.256 4.255a3 3 0 0 1 .328 3.852l-3.039 4.302a26.034 26.034 0 0 1 2.56 6.194l5.197.894ZM48 60c6.627 0 12-5.373 12-12s-5.373-12-12-12-12 5.373-12 12 5.373 12 12 12Z" fill="#fff"/></svg>