<svg width="75" height="87" fill="none" xmlns="http://www.w3.org/2000/svg"><path d="M13 33v-2h-1l1 2Z" stroke="#FA6E1C" stroke-width="3"/><path d="M10.915 31.986 7.24 33.329l-3.039 4.099L3 41.738l.495 5.018 5.936-3.321 3.816.565 3.18 2.615 4.736 6.007 3.462 6.502 2.333 7.067-5.23 1.06-4.17 4.099v6.855l3.605 4.24L26.18 84l6.007-1.555 3.675-4.24 1.343-5.442v-3.957L35.862 65.2l-.99-3.18-1.483-3.463 4.523.707 4.664.848h4.523l4.664-.848 4.382-1.201 4.523-2.262 3.463-2.544 3.11-3.25-3.676.564-7.42-1.06-3.463-1.978 3.463-1.697 3.463-2.614 2.19-2.757 1.131-3.321-2.261.424H58.83l2.969-3.392 1.766-3.534 1.06-3.887v-4.099l-1.696 2.474-2.261 1.625.636-5.37-.636-5.301-1.838-4.453-2.685-4.24-1.626 6.926-2.756 6.572-4.028 5.866-5.159 4.806-4.664 2.615-5.018 2.19-5.442 1.202h-5.441l-2.545-1.202-2.473-2.19-2.827-2.12h-2.968M28.37 35.66l3.322-2.756 3.038-3.534 2.403-4.17 1.555-4.31 1.13-4.17v-4.17l-.423-4.523L38.124 4l3.887 1.343 3.321 2.685 2.12 3.816.636 4.24-1.06 5.725-3.604 5.371-6.714 5.16-8.339 3.32Z" stroke="#FA6E1C" stroke-width="5"/></svg>