<svg width="40" height="40" viewBox="0 0 40 40" fill="none" xmlns="http://www.w3.org/2000/svg">
<path d="M15.625 7.5C13.5539 7.5 11.875 9.17894 11.875 11.25C11.875 13.3211 13.5539 15 15.625 15H24.375C26.4461 15 28.125 13.3211 28.125 11.25C28.125 9.17894 26.4461 7.5 24.375 7.5H15.625Z" fill="white"/>
<path d="M24.375 16.25C22.3039 16.25 20.625 17.9289 20.625 20C20.625 22.0711 22.3039 23.75 24.375 23.75C26.4461 23.75 28.125 22.0711 28.125 20C28.125 17.9289 26.4461 16.25 24.375 16.25Z" fill="white"/>
<path d="M11.875 20C11.875 17.9289 13.5539 16.25 15.625 16.25H19.375V23.75H15.625C13.5539 23.75 11.875 22.0711 11.875 20Z" fill="white"/>
<path d="M15.625 25C13.5539 25 11.875 26.6789 11.875 28.75C11.875 30.8211 13.5539 32.5 15.625 32.5C17.6961 32.5 19.375 30.8211 19.375 28.75V25H15.625Z" fill="white"/>
</svg>
