<svg width="96" height="95" viewBox="0 0 96 95" fill="none" xmlns="http://www.w3.org/2000/svg">
<path fill-rule="evenodd" clip-rule="evenodd" d="M48 15C29.7675 15 15 29.7675 15 48C15 62.6025 24.4462 74.9363 37.5637 79.3088C39.2137 79.5975 39.8325 78.6075 39.8325 77.7413C39.8325 76.9575 39.7913 74.3588 39.7913 71.595C31.5 73.1213 29.355 69.5738 28.695 67.7175C28.3237 66.7688 26.715 63.84 25.3125 63.0563C24.1575 62.4375 22.5075 60.9113 25.2712 60.87C27.87 60.8288 29.7263 63.2625 30.345 64.2525C33.315 69.2438 38.0588 67.8413 39.9563 66.975C40.245 64.83 41.1112 63.3863 42.06 62.5613C34.7175 61.7363 27.045 58.89 27.045 46.2675C27.045 42.6788 28.3237 39.7088 30.4275 37.3988C30.0975 36.5738 28.9425 33.1913 30.7575 28.6538C30.7575 28.6538 33.5213 27.7875 39.8325 32.0363C42.4725 31.2938 45.2775 30.9225 48.0825 30.9225C50.8875 30.9225 53.6925 31.2938 56.3325 32.0363C62.6438 27.7463 65.4075 28.6538 65.4075 28.6538C67.2225 33.1913 66.0675 36.5738 65.7375 37.3988C67.8412 39.7088 69.12 42.6375 69.12 46.2675C69.12 58.9313 61.4063 61.7363 54.0638 62.5613C55.26 63.5925 56.2913 65.5725 56.2913 68.6663C56.2913 73.08 56.25 76.6275 56.25 77.7413C56.25 78.6075 56.8687 79.6388 58.5187 79.3088C71.5538 74.9363 81 62.5613 81 48C81 29.7675 66.2325 15 48 15Z" fill="white"/>
</svg>
