<svg width="40" height="40" viewBox="0 0 40 40" fill="none" xmlns="http://www.w3.org/2000/svg">
<g clip-path="url(#clip0_105_8)">
<path d="M20 0C8.95437 0 0 8.95437 0 20C0 31.0456 8.95437 40 20 40C31.0456 40 40 31.0456 40 20C40 8.95437 31.0456 0 20 0ZM20 36.25C11.0256 36.25 3.75 28.9744 3.75 20C3.75 11.0256 11.0256 3.75 20 3.75C28.9744 3.75 36.25 11.0256 36.25 20C36.25 28.9744 28.9744 36.25 20 36.25ZM12.5 12.5H17.5V27.5H12.5V12.5ZM22.5 12.5H27.5V27.5H22.5V12.5Z" fill="#FA6E1C"/>
</g>
<defs>
<clipPath id="clip0_105_8">
<rect width="40" height="40" fill="white"/>
</clipPath>
</defs>
</svg>
