<svg width="214" height="96" viewBox="0 0 214 96" fill="none" xmlns="http://www.w3.org/2000/svg">
<path d="M109.75 35.3843L118.482 34.8199C118.681 36.2475 119.046 37.3099 119.644 38.0734C120.607 39.2686 121.935 39.8662 123.694 39.8662C124.989 39.8662 126.018 39.5674 126.715 38.9366C127.379 38.4386 127.778 37.6419 127.778 36.8119C127.778 36.0151 127.412 35.2515 126.782 34.7535C126.118 34.1559 124.557 33.5584 122.101 33.0272C118.083 32.1308 115.195 30.9356 113.502 29.4085C111.809 27.9809 110.846 25.8893 110.912 23.665C110.912 22.1378 111.377 20.6107 112.24 19.3491C113.236 17.9215 114.598 16.7928 116.224 16.162C117.984 15.3984 120.441 15 123.528 15C127.313 15 130.201 15.6972 132.193 17.1248C134.185 18.5191 135.38 20.7767 135.745 23.8642L127.114 24.3622C126.881 23.0342 126.416 22.0714 125.653 21.4406C124.889 20.8099 123.893 20.5111 122.599 20.5111C121.536 20.5111 120.739 20.7435 120.208 21.1751C119.71 21.5734 119.378 22.171 119.411 22.835C119.411 23.333 119.677 23.7978 120.075 24.0966C120.507 24.495 121.536 24.8602 123.163 25.1922C127.18 26.0553 130.035 26.9185 131.795 27.8149C133.554 28.7113 134.816 29.8068 135.579 31.1016C136.376 32.4296 136.775 33.9567 136.741 35.5171C136.741 37.3763 136.21 39.2354 135.148 40.7958C134.052 42.4225 132.525 43.6841 130.732 44.4477C128.84 45.2777 126.45 45.7093 123.595 45.7093C118.548 45.7093 115.062 44.7465 113.104 42.7877C111.145 40.829 109.983 38.3722 109.75 35.3843ZM17.0915 45.2113V15.5312H32.3964C35.2183 15.5312 37.4095 15.7636 38.9034 16.2616C40.3642 16.7264 41.659 17.6891 42.5221 18.9839C43.4849 20.4115 43.9497 22.0714 43.9165 23.7978C44.0161 26.7193 42.5221 29.5081 39.9658 30.9688C38.9698 31.5332 37.8742 31.9316 36.7455 32.1308C37.5754 32.3632 38.4054 32.7616 39.1358 33.2264C39.7002 33.6912 40.165 34.2223 40.5966 34.7867C41.0946 35.3511 41.5262 35.9819 41.8913 36.6459L46.34 45.2445H35.9155L31.002 36.1147C30.3712 34.9527 29.84 34.1891 29.3421 33.8239C28.6781 33.3592 27.8813 33.1268 27.0845 33.1268H26.2877V45.1781H17.0915V45.2113ZM26.2877 27.5493H30.172C31.002 27.4829 31.7988 27.3501 32.5956 27.1509C33.1932 27.0513 33.7243 26.7193 34.0895 26.2213C34.9859 25.0262 34.8531 23.333 33.7575 22.3038C33.16 21.8058 31.998 21.5402 30.338 21.5402H26.2877V27.5493ZM15 70.6419L23.7314 70.0775C23.9306 71.505 24.2958 72.5674 24.8934 73.331C25.8229 74.5262 27.1841 75.1569 28.9437 75.1569C30.2384 75.1569 31.2676 74.8581 31.9648 74.2274C32.6288 73.6962 33.0272 72.9326 33.0272 72.1026C33.0272 71.3058 32.662 70.5423 32.0312 70.0443C31.3672 69.4467 29.8068 68.8491 27.3169 68.3179C23.2998 67.4215 20.4115 66.2264 18.7183 64.6992C17.0252 63.2716 16.0624 61.1801 16.1288 58.9557C16.1288 57.4286 16.5936 55.9014 17.4567 54.6398C18.4527 53.2123 19.8139 52.0835 21.4406 51.4527C23.2002 50.6891 25.6569 50.2907 28.7445 50.2907C32.5292 50.2907 35.4175 50.9879 37.4095 52.4155C39.4014 53.8431 40.5634 56.0674 40.9286 59.1549L32.2968 59.6529C32.0644 58.325 31.5996 57.3622 30.836 56.7314C30.1056 56.1006 29.0765 55.8018 27.7817 55.835C26.7193 55.835 25.9225 56.0674 25.3913 56.5322C24.8602 56.9306 24.5614 57.5282 24.5946 58.1922C24.5946 58.6901 24.8602 59.1549 25.2585 59.4537C25.6901 59.8521 26.7193 60.2173 28.3461 60.5493C32.3632 61.4125 35.2183 62.2757 36.9779 63.172C38.7374 64.0684 39.999 65.164 40.7626 66.4588C41.5594 67.7867 41.9577 69.3139 41.9577 70.841C41.9577 72.7002 41.3934 74.5262 40.3642 76.0865C39.2686 77.7133 37.7414 78.9749 35.9487 79.7384C34.0563 80.5684 31.666 81 28.8109 81C23.7646 81 20.2787 80.0372 18.3199 78.0785C16.3612 76.0865 15.2656 73.6298 15 70.6419Z" fill="white"/>
<path d="M59.1549 68.3179L67.1891 70.7414C66.7576 72.7666 65.8612 74.6921 64.6328 76.3853C63.504 77.8793 62.0101 79.0412 60.3169 79.8048C58.5906 80.5684 56.3994 80.9668 53.7435 80.9668C50.5231 80.9668 47.8672 80.502 45.8421 79.5724C43.7837 78.6429 42.0242 76.9829 40.5302 74.6257C39.0362 72.2686 38.3058 69.2475 38.3058 65.5624C38.3058 60.6489 39.6006 56.8642 42.2234 54.2414C44.8461 51.6187 48.5312 50.2907 53.3119 50.2907C57.0634 50.2907 59.9849 51.0543 62.1429 52.5483C64.2676 54.0754 65.8612 56.3994 66.9235 59.5201L58.8229 61.3129C58.6238 60.6157 58.325 59.9185 57.9266 59.3209C57.4286 58.6237 56.7978 58.0925 56.0342 57.6942C55.2706 57.2958 54.4075 57.1298 53.5443 57.1298C51.4527 57.1298 49.8592 57.9598 48.7636 59.6529C47.9336 60.8813 47.502 62.84 47.502 65.496C47.502 68.7827 48 71.0402 48.996 72.2686C49.992 73.497 51.3863 74.0946 53.2123 74.0946C54.9718 74.0946 56.2998 73.5966 57.1962 72.6338C58.0926 71.6046 58.7565 70.1771 59.1549 68.3179ZM77.9125 50.7887H87.0755V61.1801H97.1016V50.7887H106.331V80.4688H97.1016V68.4507H87.0755V80.4688H77.9125V50.7887Z" fill="white"/>
<path d="M105.069 65.6288C105.069 60.7817 106.431 56.997 109.12 54.3078C111.809 51.6187 115.594 50.2575 120.407 50.2575C125.354 50.2575 129.139 51.5855 131.828 54.2414C134.517 56.8974 135.845 60.6157 135.845 65.3964C135.845 68.8823 135.247 71.7042 134.085 73.9286C132.957 76.1197 131.197 77.9125 129.039 79.1076C126.815 80.336 124.059 80.9668 120.773 80.9668C117.42 80.9668 114.664 80.4356 112.473 79.3732C110.215 78.2445 108.356 76.4849 107.128 74.327C105.767 72.003 105.069 69.1147 105.069 65.6288ZM114.232 65.662C114.232 68.6499 114.797 70.8078 115.892 72.1358C116.988 73.4306 118.515 74.0946 120.441 74.0946C122.399 74.0946 123.927 73.4638 125.022 72.169C126.118 70.8742 126.649 68.5835 126.649 65.2636C126.649 62.4748 126.084 60.4165 124.956 59.1549C123.827 57.8602 122.3 57.2294 120.374 57.2294C118.681 57.163 117.054 57.8934 115.926 59.1881C114.797 60.4829 114.232 62.6408 114.232 65.662ZM145.24 65.6288C145.24 60.7817 146.602 56.997 149.291 54.3078C151.98 51.6187 155.765 50.2575 160.578 50.2575C165.525 50.2575 169.343 51.5855 171.999 54.2414C174.655 56.8974 176.016 60.6157 176.016 65.3964C176.016 68.8823 175.418 71.7042 174.257 73.9286C173.128 76.1197 171.368 77.9125 169.21 79.1076C166.986 80.336 164.23 80.9668 160.944 80.9668C157.591 80.9668 154.835 80.4356 152.644 79.3732C150.386 78.2445 148.527 76.4849 147.299 74.327C145.938 72.003 145.24 69.1147 145.24 65.6288ZM154.403 65.662C154.403 68.6499 154.968 70.8078 156.063 72.1358C157.159 73.4306 158.686 74.0946 160.612 74.0946C162.57 74.0946 164.098 73.4638 165.193 72.169C166.289 70.8742 166.82 68.5835 166.82 65.2636C166.82 62.4748 166.256 60.4165 165.127 59.1549C163.998 57.8602 162.471 57.2294 160.545 57.2294C158.852 57.163 157.192 57.8934 156.097 59.1881C154.968 60.4829 154.403 62.6408 154.403 65.662Z" fill="white"/>
<path d="M175.053 50.7887H184.216V73.165H198.525V80.4688H175.02V50.7887H175.053Z" fill="white"/>
<path d="M164.954 49.076C174.179 42.124 177.024 30.3393 171.307 22.7542C165.592 15.1691 153.479 14.6558 144.254 21.6077C135.029 28.5596 132.184 40.3442 137.9 47.9293C143.616 55.5143 155.728 56.0279 164.954 49.076Z" stroke="white" stroke-width="4" stroke-miterlimit="10"/>
<path d="M145.274 33.16L148.594 30.836L152.677 36.6459C153.374 37.5755 153.905 38.5714 154.304 39.667C154.536 40.497 154.47 41.3934 154.138 42.1901C153.706 43.1861 153.009 44.0161 152.079 44.6137C150.984 45.3773 150.054 45.8089 149.258 45.9417C148.494 46.0745 147.697 45.9417 146.967 45.6097C146.17 45.2113 145.473 44.6469 144.942 43.9165L147.797 41.2606C148.029 41.6258 148.328 41.9578 148.66 42.2233C148.892 42.3893 149.158 42.4889 149.457 42.4889C149.689 42.4889 149.922 42.3893 150.088 42.2565C150.42 42.0573 150.652 41.659 150.619 41.2606C150.519 40.6962 150.287 40.1318 149.922 39.7002L145.274 33.16ZM155.233 36.8451L158.255 34.4547C158.587 34.8531 159.018 35.1519 159.483 35.3179C160.147 35.5171 160.844 35.3843 161.408 34.9527C161.807 34.6871 162.139 34.3219 162.272 33.8571C162.471 33.2596 162.139 32.5956 161.541 32.3964C161.442 32.3632 161.342 32.33 161.242 32.33C160.844 32.2968 160.147 32.4628 159.118 32.8944C157.425 33.5916 156.097 33.8571 155.101 33.7576C154.138 33.658 153.241 33.16 152.71 32.33C152.312 31.7656 152.113 31.1016 152.079 30.4376C152.079 29.674 152.279 28.9105 152.71 28.2797C153.341 27.3833 154.105 26.6197 155.034 26.0221C156.429 25.0594 157.657 24.5946 158.719 24.5946C159.782 24.5946 160.778 25.0926 161.707 26.1217L158.719 28.4789C158.122 27.7153 156.993 27.5493 156.229 28.1469L156.13 28.2465C155.798 28.4457 155.565 28.7445 155.433 29.1097C155.333 29.3753 155.399 29.6741 155.565 29.9064C155.698 30.0724 155.897 30.2052 156.13 30.2052C156.395 30.2384 156.86 30.1056 157.524 29.8068C159.184 29.1097 160.446 28.7113 161.309 28.5785C162.039 28.4457 162.803 28.5121 163.5 28.8109C164.131 29.0765 164.662 29.5413 165.027 30.1056C165.492 30.7696 165.758 31.5664 165.791 32.3964C165.824 33.2596 165.592 34.0895 165.127 34.8199C164.529 35.7163 163.766 36.4799 162.869 37.0775C161.043 38.339 159.549 38.8702 158.354 38.671C157.059 38.4718 155.997 37.8079 155.233 36.8451Z" fill="white"/>
</svg>
