<svg width="96" height="96" viewBox="0 0 96 96" fill="none" xmlns="http://www.w3.org/2000/svg">
<path d="M78.5085 42.0345C79.9485 42.282 81 43.53 81 44.991V51.009C81 52.47 79.9485 53.718 78.5085 53.9655L73.3125 54.8595C72.72 57.051 71.859 59.1285 70.752 61.053L73.791 65.355C74.634 66.5475 74.4945 68.175 73.4625 69.207L69.207 73.4625C68.1735 74.496 66.5475 74.634 65.355 73.791L61.053 70.7535C59.1285 71.8605 57.051 72.72 54.8595 73.314L53.9655 78.51C53.718 79.9485 52.47 81 51.009 81H44.991C43.53 81 42.282 79.9485 42.0345 78.5085L41.1405 73.3125C38.949 72.72 36.8715 71.859 34.947 70.752L30.645 73.7895C29.4525 74.6325 27.825 74.493 26.793 73.461L22.5375 69.2055C21.5055 68.172 21.366 66.546 22.209 65.3535L25.248 61.0515C24.141 59.127 23.28 57.0495 22.6875 54.858L17.4915 53.964C16.0515 53.718 15 52.47 15 51.009V44.991C15 43.53 16.0515 42.282 17.4915 42.0345L22.6875 41.1405C23.28 38.949 24.141 36.8715 25.248 34.947L22.209 30.645C21.366 29.4525 21.5055 27.825 22.5375 26.793L26.793 22.5375C27.8265 21.5055 29.4525 21.366 30.645 22.209L34.947 25.248C36.8715 24.141 38.949 23.2815 41.1405 22.6875L42.0345 17.4915C42.282 16.0515 43.53 15 44.991 15H51.009C52.47 15 53.718 16.0515 53.9655 17.4915L54.8595 22.6875C57.051 23.28 59.1285 24.141 61.053 25.248L65.355 22.209C66.5475 21.366 68.175 21.5055 69.207 22.5375L73.4625 26.793C74.4945 27.825 74.634 29.4525 73.791 30.645L70.752 34.947C71.859 36.8715 72.72 38.949 73.3125 41.1405L78.5085 42.0345ZM48 60C54.627 60 60 54.627 60 48C60 41.373 54.627 36 48 36C41.373 36 36 41.373 36 48C36 54.627 41.373 60 48 60Z" fill="white"/>
</svg>
