<svg width="75" height="87" viewBox="0 0 75 87" fill="none" xmlns="http://www.w3.org/2000/svg">
<path d="M13 33.0001V31H12.6667H12L13 33.0001Z" stroke="#FA6E1C" stroke-width="3"/>
<path d="M10.9152 31.9859L7.24028 33.3286L4.20141 37.4276L3 41.7385L3.4947 46.7562L9.43109 43.4346L13.2473 44L16.4276 46.6148L21.1625 52.6219L24.6254 59.1237L26.9576 66.1908L21.7279 67.2509L17.5583 71.3498V78.2049L21.1625 82.4452L26.1802 84L32.1873 82.4452L35.8622 78.2049L37.2049 72.7633V68.8057L35.8622 65.2014L34.8728 62.0212L33.3887 58.5583L37.9117 59.265L42.576 60.1131H47.0989L51.7632 59.265L56.1449 58.0636L60.6678 55.8021L64.1307 53.258L67.2403 50.0071L63.5654 50.5724L56.1449 49.5124L52.682 47.5336L56.1449 45.8375L59.6078 43.2226L61.7986 40.4664L62.9293 37.1449L60.6678 37.5689H58.8304L61.7986 34.1767L63.5654 30.6431L64.6254 26.7562V22.6572L62.9293 25.1307L60.6678 26.7562L61.3039 21.3852L60.6678 16.0848L58.8304 11.6325L56.1449 7.39223L54.5194 14.318L51.7632 20.8905L47.735 26.7562L42.576 31.5618L37.9117 34.1767L32.894 36.3675L27.4523 37.5689H22.0106L19.4664 36.3675L16.9929 34.1767L14.1661 32.0565H11.1979M28.371 35.6608L31.6926 32.9046L34.7314 29.371L37.1343 25.2014L38.689 20.8905L39.8198 16.7208V12.5512L39.3958 8.02827L38.1237 4L42.0106 5.34276L45.3322 8.02827L47.4523 11.8445L48.0883 16.0848L47.0283 21.8092L43.424 27.1802L36.7102 32.3392L28.371 35.6608Z" stroke="#FA6E1C" stroke-width="5"/>
</svg>
