<svg width="24" height="24" viewBox="0 0 24 24" fill="none" xmlns="http://www.w3.org/2000/svg">
<path d="M6 7L14 2V22L6 17V7ZM0 17H4V7H0V17ZM20.264 3.736L18.767 5.233C20.614 7.016 21.75 9.39 21.75 12C21.75 14.61 20.615 16.984 18.767 18.766L20.265 20.264C22.57 18.111 24 15.209 24 12C24 8.791 22.57 5.89 20.264 3.736ZM19.775 12C19.775 9.916 18.86 8.033 17.391 6.609L15.888 8.112C16.899 9.161 17.525 10.513 17.525 12C17.525 13.488 16.902 14.841 15.891 15.891L17.394 17.394C18.862 15.97 19.775 14.085 19.775 12V12Z" fill="#D6E7E2"/>
</svg>
